<?xml version="1.0" standalone="no"?>
<!DOCTYPE svg PUBLIC "-//W3C//DTD SVG 20010904//EN"
 "http://www.w3.org/TR/2001/REC-SVG-20010904/DTD/svg10.dtd">
<svg version="1.0" xmlns="http://www.w3.org/2000/svg"
 width="341.000000pt" height="341.000000pt" viewBox="0 0 341.000000 341.000000"
 preserveAspectRatio="xMidYMid meet">
<metadata>
Created by potrace 1.14, written by Peter Selinger 2001-2017
</metadata>
<g transform="translate(0.000000,341.000000) scale(0.100000,-0.100000)"
fill="#000000" stroke="none">
<path d="M731 2984 c-169 -200 -284 -425 -349 -682 -25 -101 -27 -119 -27
-347 0 -196 3 -255 18 -323 151 -687 724 -1193 1407 -1242 452 -33 849 101
1188 398 l63 56 -133 133 c-73 73 -140 133 -149 133 -9 0 -23 -8 -30 -17 -63
-77 -361 -243 -506 -281 -167 -45 -410 -48 -579 -6 -83 21 -247 89 -335 140
-255 148 -443 408 -530 734 -26 97 -36 325 -20 441 31 217 137 438 303 632
l32 38 -134 134 c-74 74 -139 135 -145 135 -6 0 -39 -34 -74 -76z"/>
<path d="M1360 1930 l0 -663 323 6 c360 7 390 12 516 77 233 121 356 358 338
650 -16 250 -114 418 -299 509 -133 66 -178 72 -550 78 l-328 5 0 -662z m653
362 c70 -35 109 -72 154 -149 27 -47 28 -52 28 -198 0 -142 -1 -153 -27 -207
-33 -71 -106 -143 -178 -177 -48 -22 -72 -26 -187 -29 l-133 -4 0 402 0 403
139 -5 c132 -4 142 -6 204 -36z"/>
</g>
</svg>
