<?xml version="1.0" standalone="no"?>
<!DOCTYPE svg PUBLIC "-//W3C//DTD SVG 20010904//EN"
 "http://www.w3.org/TR/2001/REC-SVG-20010904/DTD/svg10.dtd">
<svg version="1.0" xmlns="http://www.w3.org/2000/svg"
 width="487.000000pt" height="487.000000pt" viewBox="0 0 487.000000 487.000000"
 preserveAspectRatio="xMidYMid meet">
<metadata>
Created by potrace 1.14, written by Peter Selinger 2001-2017
</metadata>
<g transform="translate(0.000000,487.000000) scale(0.100000,-0.100000)"
fill="#000000" stroke="none">
<path d="M2366 4423 c-16 -16 -24 -20 -20 -10 3 10 1 17 -5 17 -6 0 -11 -5
-11 -10 0 -17 -47 -60 -66 -60 -9 0 -14 -6 -11 -13 5 -13 -17 -39 -27 -30 -3
3 -9 -3 -13 -13 -9 -24 -28 -44 -42 -44 -6 0 -11 -5 -11 -11 0 -15 -26 -39
-34 -32 -3 4 -6 -2 -6 -11 0 -12 -5 -16 -15 -12 -9 3 -15 0 -15 -10 0 -18 -18
-37 -44 -47 -10 -4 -16 -10 -13 -13 9 -10 -21 -36 -33 -29 -5 3 -10 -3 -10
-14 0 -13 -7 -21 -17 -21 -9 0 -14 -3 -10 -6 8 -8 -12 -28 -37 -37 -10 -4 -16
-10 -13 -13 8 -8 -18 -34 -32 -34 -6 0 -11 -5 -11 -11 0 -16 -27 -39 -45 -39
-11 0 -15 -5 -11 -15 3 -10 -1 -15 -11 -15 -9 0 -14 -3 -10 -6 8 -8 -12 -28
-37 -37 -10 -4 -16 -10 -13 -13 9 -9 -19 -34 -38 -34 -9 0 -15 -6 -13 -12 5
-14 -15 -38 -31 -38 -6 0 -11 -5 -11 -10 0 -12 -46 -61 -56 -59 -4 0 -14 -11
-24 -25 -9 -15 -19 -23 -23 -20 -4 4 -10 -2 -14 -12 -7 -20 -28 -44 -38 -44
-3 0 -15 -9 -27 -20 -12 -11 -18 -20 -14 -20 4 0 1 -7 -8 -15 -8 -8 -19 -15
-25 -15 -6 0 -11 -5 -11 -11 0 -16 -26 -39 -45 -39 -9 0 -13 -5 -10 -10 7 -12
-18 -40 -35 -40 -6 0 -8 -4 -5 -10 3 -5 -1 -10 -9 -10 -9 0 -16 -5 -16 -11 0
-16 -26 -39 -44 -39 -10 0 -13 -6 -10 -15 4 -10 0 -15 -11 -15 -9 0 -13 -4
-10 -10 3 -5 -1 -10 -9 -10 -9 0 -16 -7 -16 -15 0 -8 -8 -15 -17 -15 -9 0 -14
-3 -10 -6 9 -9 -19 -34 -38 -34 -9 0 -13 -5 -10 -10 7 -11 -18 -40 -34 -40 -6
0 -11 -5 -11 -11 0 -14 -26 -39 -40 -39 -6 0 -9 -4 -5 -9 3 -6 -2 -14 -10 -19
-9 -5 -17 -15 -18 -23 -2 -8 -7 -20 -11 -28 -6 -10 -5 -12 2 -7 7 4 12 2 12
-3 0 -6 -5 -11 -11 -11 -8 0 -7 -6 2 -17 8 -9 9 -14 3 -10 -8 4 -11 -2 -10
-17 0 -13 4 -22 8 -19 5 2 8 -8 8 -22 0 -27 20 -55 39 -55 6 0 11 -5 11 -11 0
-14 25 -39 39 -39 6 0 11 -5 11 -11 0 -11 25 -39 35 -39 10 0 35 -28 35 -39 0
-6 5 -11 10 -11 6 0 10 -7 10 -15 0 -9 6 -12 15 -9 9 4 15 0 15 -10 0 -9 5
-16 11 -16 5 0 7 -4 4 -10 -3 -5 3 -10 15 -10 12 0 19 -4 16 -8 -6 -10 29 -42
45 -42 5 0 8 -4 4 -9 -6 -11 -45 -10 -45 1 0 4 -11 8 -24 8 -14 0 -28 4 -31
10 -3 5 -16 9 -28 9 -30 -1 -55 5 -64 16 -4 4 -3 5 4 1 6 -3 14 -3 17 2 5 9
-6 11 -56 13 -15 0 -30 5 -33 10 -4 5 -16 9 -27 9 -11 0 -26 6 -32 14 -6 8
-22 16 -36 18 -14 2 -28 6 -31 11 -3 4 -22 8 -42 9 -20 1 -37 5 -37 10 0 5 4
7 9 3 5 -3 13 -1 16 5 4 6 3 10 -2 9 -4 -1 -23 -1 -41 0 -24 1 -31 5 -26 14 5
7 0 6 -11 -3 -11 -9 -16 -10 -11 -2 7 12 -10 17 -42 13 -8 -1 -19 2 -25 7 -7
5 -25 12 -40 16 -15 4 -25 11 -22 16 6 9 -16 14 -52 13 -7 -1 -10 3 -7 8 5 8
-31 14 -66 10 -12 -2 -12 0 -1 7 21 15 -1 22 -70 23 -38 1 -64 -3 -69 -11 -6
-9 -9 -9 -13 1 -4 10 -6 9 -6 -4 -1 -9 -7 -16 -13 -15 -7 2 -12 -3 -10 -11 3
-12 1 -12 -14 0 -12 9 -15 9 -10 2 4 -9 1 -13 -9 -13 -11 0 -15 -5 -11 -15 4
-10 -1 -15 -14 -15 -14 0 -20 -7 -20 -21 0 -11 -4 -18 -9 -14 -5 3 -11 -9 -13
-27 -2 -22 -8 -32 -17 -30 -8 2 -11 -3 -8 -11 3 -8 -1 -24 -9 -35 -11 -16 -11
-21 -1 -25 9 -4 9 -6 0 -6 -7 -1 -13 -13 -13 -27 0 -14 -3 -23 -7 -21 -5 3 -9
-14 -11 -36 -2 -23 -8 -46 -14 -52 -8 -7 -9 -6 -3 4 5 9 4 12 -3 7 -7 -4 -12
-16 -12 -27 0 -11 -5 -29 -10 -39 -6 -10 -11 -30 -12 -44 -1 -15 -9 -26 -16
-26 -8 0 -12 -6 -8 -15 3 -8 -1 -21 -9 -28 -11 -11 -11 -17 -2 -27 9 -10 9
-11 0 -6 -9 5 -13 -1 -13 -18 0 -14 -6 -26 -13 -26 -8 0 -13 -20 -15 -64 -3
-52 0 -65 14 -70 9 -4 14 -9 11 -13 -4 -3 -2 -12 4 -20 6 -7 8 -13 5 -13 -4 0
-2 -9 4 -20 6 -11 17 -20 25 -20 8 0 15 -5 15 -11 0 -17 26 -38 53 -41 15 -2
30 -8 34 -13 4 -4 3 -5 -4 -1 -6 3 -14 2 -18 -4 -4 -6 8 -10 30 -10 20 0 34
-4 31 -9 -4 -5 2 -8 11 -6 10 1 31 -4 47 -12 22 -12 27 -12 21 -1 -6 10 -5 11
6 1 7 -7 24 -13 38 -13 22 0 23 -1 8 -13 -15 -10 -11 -12 30 -15 27 -1 50 -7
51 -12 2 -6 20 -10 39 -10 28 0 33 -3 25 -13 -8 -10 -5 -13 15 -15 14 -1 33
-8 41 -15 13 -10 14 -9 7 3 -6 12 -5 13 6 3 7 -7 23 -13 36 -13 13 0 23 -4 23
-10 0 -5 15 -10 34 -10 19 0 38 -4 41 -10 4 -6 -1 -7 -12 -4 -15 5 -16 4 -3
-5 8 -6 25 -11 37 -11 12 0 24 -6 26 -12 4 -10 6 -10 6 0 1 6 6 12 12 12 5 0
7 -4 4 -10 -3 -6 5 -11 19 -11 39 -2 44 -3 53 -13 4 -5 3 -6 -4 -2 -6 3 -14 3
-17 -2 -2 -4 12 -9 32 -10 20 -2 38 -7 40 -12 2 -6 19 -10 37 -10 19 0 37 -5
41 -12 5 -8 2 -9 -10 -5 -14 6 -15 3 -6 -13 10 -18 7 -20 -20 -20 -16 0 -30
-4 -30 -8 0 -7 -29 -12 -77 -15 -7 0 -13 -5 -13 -10 0 -5 7 -7 15 -3 8 3 15 1
15 -4 0 -6 -18 -10 -41 -10 -29 0 -38 -3 -33 -12 5 -8 0 -7 -11 2 -11 9 -16
10 -11 3 5 -9 -2 -13 -24 -13 -25 0 -31 -4 -26 -15 4 -12 -3 -15 -29 -15 -18
0 -37 -4 -40 -10 -3 -5 -20 -10 -37 -10 -23 0 -29 -4 -24 -15 3 -8 2 -14 -2
-14 -4 1 -25 1 -47 0 -30 -1 -36 -4 -25 -11 11 -7 5 -10 -22 -10 -21 0 -38 -4
-38 -10 0 -5 -3 -9 -8 -9 -4 1 -24 1 -44 0 -29 -1 -36 -4 -32 -16 4 -10 0 -15
-13 -15 -10 0 -25 -6 -32 -12 -11 -11 -12 -10 -6 2 6 12 5 13 -6 3 -7 -7 -23
-13 -36 -13 -14 0 -23 -6 -23 -15 0 -11 -11 -15 -42 -15 -32 0 -39 -3 -28 -10
13 -8 12 -10 -5 -11 -11 -1 -26 -1 -32 0 -7 1 -13 -5 -13 -14 0 -9 -9 -15 -22
-15 -19 0 -20 -2 -8 -10 13 -8 12 -10 -2 -10 -10 0 -18 -7 -18 -16 0 -9 -5
-12 -12 -8 -8 5 -9 2 -5 -9 3 -10 3 -17 -2 -17 -5 0 -7 -11 -6 -25 2 -14 -2
-23 -8 -22 -13 2 -18 -131 -6 -139 5 -2 6 4 4 16 -2 11 1 22 6 26 5 3 9 2 8
-3 -1 -4 -1 -28 0 -53 1 -33 4 -41 11 -30 7 11 10 1 11 -35 0 -27 3 -44 6 -37
5 13 24 17 22 4 -5 -28 3 -72 11 -67 6 4 10 -7 10 -25 0 -22 4 -31 13 -27 9 3
14 -5 15 -26 2 -17 8 -37 15 -46 9 -12 9 -13 0 -7 -7 4 -13 2 -13 -3 0 -6 5
-11 10 -11 6 0 10 -9 10 -19 0 -11 5 -23 10 -26 6 -3 10 -17 10 -31 0 -13 6
-24 13 -24 8 0 7 -4 -3 -10 -13 -8 -12 -10 3 -10 11 0 17 -8 17 -23 0 -37 23
-77 44 -77 11 0 16 -3 13 -7 -8 -7 11 -33 25 -33 5 0 6 5 3 11 -4 6 2 5 13 -2
12 -7 20 -18 19 -23 -1 -7 33 -12 92 -13 83 -2 91 0 75 13 -11 8 -14 14 -9 13
33 -4 75 2 70 11 -4 6 8 10 29 10 20 0 36 5 36 10 0 6 16 10 35 10 24 0 35 5
35 15 0 10 10 15 33 15 18 0 37 4 43 10 5 5 26 10 46 12 20 1 35 5 32 10 -3 4
-12 4 -22 1 -13 -4 -14 -3 -6 6 6 7 26 13 43 13 17 1 34 5 37 10 3 4 19 8 36
8 23 0 29 4 24 15 -3 8 -1 15 4 15 6 0 10 -6 10 -12 0 -8 3 -9 8 -3 9 13 56
37 68 34 26 -5 45 2 38 14 -5 7 0 6 11 -3 11 -9 16 -10 11 -2 -7 12 6 16 53
14 22 -1 23 0 6 12 -16 12 -15 13 13 14 17 0 40 5 51 11 11 6 29 11 41 11 11
0 23 7 26 15 4 8 17 15 29 15 13 0 25 4 27 10 2 5 22 11 45 12 32 2 39 6 31
16 -8 9 -2 12 26 12 20 0 36 5 36 10 0 6 6 10 13 8 23 -5 107 26 107 40 0 7 5
10 10 7 6 -4 7 -11 4 -17 -4 -7 -2 -8 5 -4 6 4 9 12 6 17 -4 5 8 9 24 9 17 0
31 4 31 10 0 5 3 9 8 9 25 -4 62 2 57 10 -7 12 3 18 40 22 17 2 33 7 36 12 3
4 22 8 42 9 31 1 34 3 20 13 -16 12 -15 13 2 12 42 0 56 3 50 13 -6 9 38 15
74 11 7 -2 10 2 6 8 -4 7 7 11 30 11 29 0 36 3 31 15 -3 8 -2 14 2 14 4 -1 25
-1 47 0 30 1 36 4 25 11 -11 7 -3 10 30 11 25 0 39 3 32 6 -6 2 -9 9 -6 14 3
6 12 5 22 -3 9 -7 13 -8 9 -2 -4 7 5 14 23 18 17 3 31 5 33 3 2 -1 16 6 31 17
16 10 25 12 21 5 -6 -8 -4 -10 6 -3 21 13 49 15 49 4 0 -6 18 -10 40 -10 22 0
40 -4 40 -10 0 -5 3 -9 8 -9 28 5 54 -3 49 -14 -3 -9 6 -14 26 -15 17 -2 35
-8 39 -15 6 -9 8 -8 8 3 0 11 2 12 8 3 4 -7 22 -14 40 -16 18 -2 35 -7 40 -12
4 -5 2 -5 -5 -1 -6 3 -14 3 -17 -2 -2 -4 10 -9 27 -10 17 -2 34 -7 38 -13 3
-6 9 -10 13 -10 30 4 46 0 40 -11 -5 -9 -2 -9 9 1 11 9 17 10 17 2 0 -6 16
-11 36 -11 32 0 35 -2 24 -16 -8 -8 -9 -14 -4 -13 28 5 74 -2 69 -11 -4 -6 8
-10 30 -10 20 0 34 -4 31 -9 -7 -10 17 -21 45 -21 11 0 27 -4 37 -9 9 -6 30
-12 45 -16 15 -3 25 -10 22 -15 -3 -6 5 -10 19 -10 14 0 26 -5 26 -11 0 -8 6
-7 17 2 11 10 14 10 9 2 -5 -10 3 -13 29 -13 22 0 34 -4 30 -10 -5 -9 32 -16
59 -11 5 1 6 -5 3 -14 -6 -14 15 -21 46 -16 4 0 7 -4 7 -10 0 -6 10 -10 23 -9
37 3 47 1 44 -12 -2 -13 3 -14 61 -17 30 -2 33 -4 17 -11 -16 -7 -12 -9 20
-10 22 -2 43 -2 48 -1 4 0 7 -6 7 -14 0 -10 10 -15 31 -15 16 0 28 -4 25 -8
-4 -8 15 -12 61 -15 12 0 19 -5 17 -9 -3 -4 9 -8 25 -8 21 0 31 -5 31 -15 0
-10 11 -15 35 -15 19 0 35 -4 35 -10 0 -5 14 -10 31 -10 21 0 30 -4 26 -13 -5
-12 14 -18 70 -20 12 -1 19 -5 17 -9 -5 -7 26 -13 49 -9 4 0 7 -6 7 -14 0 -10
11 -15 35 -15 19 0 35 -4 35 -10 0 -5 11 -10 25 -10 14 0 25 -6 25 -12 0 -9 4
-8 10 2 6 10 10 11 10 3 0 -7 11 -13 24 -13 13 0 26 -6 29 -14 4 -11 26 -14
86 -14 47 0 79 4 75 9 -3 5 -11 6 -17 3 -7 -4 -8 -3 -4 2 9 9 14 11 48 13 12
1 17 5 13 13 -4 6 -3 8 4 4 6 -3 17 1 25 9 9 8 20 15 26 15 6 0 11 7 11 15 0
8 6 15 13 15 8 0 7 4 -3 10 -10 6 -11 10 -2 10 6 0 12 11 12 25 0 16 6 25 15
25 18 0 20 16 3 23 -10 4 -10 6 0 6 6 1 12 10 12 22 0 11 5 17 10 14 9 -6 12
8 13 62 0 12 4 20 9 17 4 -3 5 -10 2 -16 -4 -6 -3 -8 2 -5 5 3 11 20 12 39 2
18 7 37 12 42 6 6 10 22 10 37 0 15 5 29 11 31 6 2 12 16 12 32 0 15 6 30 13
33 8 3 14 19 14 38 0 18 4 35 10 37 5 2 10 20 12 40 1 20 6 34 10 32 5 -3 6
-10 3 -15 -4 -5 -2 -9 3 -9 15 0 15 117 -1 123 -7 2 -14 19 -15 37 -2 31 -21
60 -39 60 -5 0 -15 9 -23 21 -19 27 -60 48 -99 51 -20 1 -27 6 -21 13 6 7 -1
12 -23 13 -18 2 -33 7 -35 12 -2 6 -19 10 -38 10 -21 0 -34 5 -34 13 0 7 -14
14 -31 15 -17 1 -41 8 -53 14 -11 7 -27 11 -34 9 -8 -1 -20 3 -28 10 -8 6 -24
13 -37 14 -41 4 -42 5 -27 15 11 7 5 10 -23 10 -23 0 -36 4 -32 10 4 6 -10 10
-34 10 -30 0 -41 4 -41 15 0 10 -11 15 -35 15 -19 0 -35 5 -35 10 0 6 -12 10
-26 10 -18 0 -24 4 -21 13 3 8 -1 14 -9 14 -7 0 -11 -4 -8 -9 3 -4 0 -8 -5 -8
-6 0 -11 5 -11 10 0 6 -15 10 -32 10 -25 0 -29 3 -18 10 11 7 4 10 -26 10 -36
0 -42 3 -46 25 -3 13 -2 24 1 23 26 -3 61 4 57 10 -3 5 1 9 9 9 8 0 15 -5 15
-11 0 -6 4 -5 9 3 5 7 21 14 35 14 22 0 24 1 11 11 -12 9 -8 11 22 14 20 1 40
6 43 11 3 5 21 11 40 13 21 2 34 8 32 16 -1 8 12 12 40 12 32 0 39 3 28 10
-11 7 -3 10 30 10 33 0 41 3 30 10 -11 7 -5 10 25 11 22 1 47 0 55 -1 11 -1
10 2 -3 12 -17 13 -16 14 14 16 18 2 36 6 39 11 3 4 16 7 29 6 13 -1 32 6 43
17 10 10 29 18 42 18 14 0 28 5 31 10 3 6 23 10 43 10 28 0 33 3 22 10 -11 7
-6 10 22 10 20 0 40 5 44 12 5 7 3 8 -6 3 -9 -5 -11 -4 -6 3 4 7 16 12 27 12
22 0 72 44 61 54 -3 4 1 4 11 0 13 -5 16 -2 10 12 -4 12 -3 15 5 10 12 -7 15
4 15 46 0 21 13 24 20 6 2 -7 5 20 5 60 0 53 -4 75 -14 79 -8 3 -14 13 -14 22
0 9 -6 23 -12 30 -10 11 -10 13 0 7 6 -4 12 -2 12 3 0 6 -4 11 -10 11 -5 0
-10 11 -10 25 0 16 -6 25 -15 25 -8 0 -15 4 -15 10 0 5 8 7 18 4 16 -5 16 -5
0 6 -10 6 -18 20 -18 31 0 11 -4 17 -10 14 -6 -4 -10 8 -10 29 0 20 -4 36 -8
36 -4 0 -9 10 -10 23 -4 41 -8 56 -17 64 -4 4 -5 3 -1 -4 3 -6 3 -14 -2 -17
-4 -2 -9 10 -10 27 -2 18 -7 34 -12 35 -6 2 -10 8 -10 13 0 6 5 7 12 3 6 -4 4
3 -5 15 -8 13 -13 30 -10 37 4 10 0 12 -11 8 -13 -5 -16 0 -16 25 0 18 -5 31
-12 31 -9 0 -8 4 2 10 13 8 12 10 -3 10 -10 0 -15 5 -12 10 3 6 1 10 -4 10
-15 0 -51 37 -44 44 6 6 -13 9 -52 9 -19 -1 -19 0 0 13 17 13 14 14 -31 15
-82 2 -129 -3 -140 -14 -4 -3 4 -4 16 -2 12 2 19 1 16 -3 -9 -8 -14 -9 -63
-11 -29 -1 -34 -4 -23 -11 11 -7 4 -10 -27 -10 -24 0 -43 -5 -43 -11 0 -5 5
-7 12 -3 7 4 8 3 4 -4 -4 -7 -20 -12 -36 -12 -16 0 -32 -4 -35 -10 -3 -5 -22
-10 -41 -10 -21 0 -33 -4 -29 -10 5 -8 -49 -16 -78 -11 -5 1 -6 -3 -2 -9 3 -6
11 -8 16 -5 5 4 9 2 9 -3 0 -5 -11 -10 -25 -11 -46 -3 -55 -4 -55 -11 0 -3
-14 -7 -31 -8 -38 -3 -51 -10 -44 -23 4 -5 -7 -9 -22 -9 -16 0 -34 -5 -39 -10
-6 -6 -27 -11 -47 -12 -20 -1 -37 -5 -37 -10 0 -5 4 -7 9 -3 5 3 12 1 16 -5 4
-6 -10 -10 -35 -10 -28 0 -39 -4 -34 -11 4 -7 1 -10 -7 -7 -8 3 -34 -1 -58 -9
-52 -15 -63 -10 -33 16 12 10 22 23 22 30 0 6 5 11 11 11 14 0 39 25 39 39 0
6 5 11 11 11 14 0 39 25 39 39 0 6 5 11 10 11 14 0 60 46 60 60 0 5 5 10 11
10 14 0 39 25 39 39 0 6 6 11 13 11 19 0 39 42 40 83 1 20 5 34 9 31 4 -3 5
-11 2 -18 -3 -8 -1 -16 4 -19 4 -4 8 16 8 43 0 26 -4 46 -9 43 -5 -3 -6 -12
-3 -20 3 -8 2 -12 -3 -9 -4 3 -8 20 -9 38 0 18 -6 34 -11 36 -6 2 -11 10 -11
18 0 8 -5 14 -11 14 -14 0 -33 20 -42 44 -4 10 -10 16 -13 13 -7 -6 -34 17
-34 28 0 8 -27 35 -35 35 -13 0 -35 29 -35 45 0 9 -5 13 -10 10 -11 -7 -40 18
-40 34 0 6 -5 11 -11 11 -11 0 -39 25 -39 35 0 4 -6 13 -14 21 -8 8 -17 14
-21 14 -10 0 -35 28 -35 39 0 6 -5 11 -11 11 -6 0 -17 6 -25 14 -8 8 -14 19
-14 25 0 6 -5 11 -11 11 -16 0 -40 27 -37 42 2 7 -3 12 -9 11 -7 -2 -13 2 -13
7 0 6 -5 10 -11 10 -6 0 -17 6 -25 14 -8 8 -14 19 -14 25 0 6 -5 11 -11 11 -6
0 -17 6 -25 14 -8 8 -14 19 -14 25 0 6 -5 11 -10 11 -17 0 -62 49 -55 60 3 6
-1 10 -10 10 -19 0 -47 25 -38 34 3 3 -3 9 -13 13 -21 8 -50 33 -38 33 9 0
-26 34 -41 40 -17 7 -33 25 -28 33 2 4 -4 10 -14 14 -23 9 -43 28 -43 42 0 6
-5 11 -11 11 -6 0 -17 6 -25 14 -8 8 -14 19 -14 25 0 6 -5 11 -11 11 -5 0 -7
5 -4 10 3 6 -1 10 -10 10 -19 0 -45 23 -45 39 0 6 -7 11 -15 11 -8 0 -15 7
-15 16 0 8 -4 12 -10 9 -5 -3 -10 1 -10 9 0 9 -5 16 -11 16 -11 0 -39 25 -39
35 0 8 -27 35 -35 35 -10 0 -35 28 -35 39 0 6 -5 11 -11 11 -16 0 -40 27 -37
42 2 8 -4 12 -14 10 -10 -2 -18 1 -18 5 0 14 -47 63 -59 63 -7 0 -10 4 -7 9 3
5 -4 11 -15 14 -12 3 -19 10 -16 14 3 5 -11 10 -31 11 -20 2 -39 7 -40 13 -3
6 -10 5 -20 -3 -12 -10 -14 -10 -8 0 4 6 2 12 -3 12 -6 0 -11 -4 -11 -10 0 -5
-5 -10 -11 -10 -5 0 -7 5 -4 10 11 18 -2 11 -29 -17z m1524 -1727 c0 -3 -4 -8
-10 -11 -5 -3 -10 -1 -10 4 0 6 5 11 10 11 6 0 10 -2 10 -4z m-346 -1934 c3
-5 -1 -9 -9 -9 -8 0 -12 4 -9 9 3 4 7 8 9 8 2 0 6 -4 9 -8z"/>
<path d="M3875 1671 c-3 -5 -2 -12 3 -15 5 -3 9 1 9 9 0 17 -3 19 -12 6z"/>
</g>
</svg>
