<?xml version="1.0" standalone="no"?>
<!DOCTYPE svg PUBLIC "-//W3C//DTD SVG 20010904//EN"
 "http://www.w3.org/TR/2001/REC-SVG-20010904/DTD/svg10.dtd">
<svg version="1.0" xmlns="http://www.w3.org/2000/svg"
 width="512.000000pt" height="512.000000pt" viewBox="0 0 512.000000 512.000000"
 preserveAspectRatio="xMidYMid meet">
<metadata>
Created by potrace 1.14, written by Peter Selinger 2001-2017
</metadata>
<g transform="translate(0.000000,512.000000) scale(0.100000,-0.100000)"
fill="#000000" stroke="none">
<path d="M1405 5021 c-51 -24 -87 -64 -108 -121 -21 -56 -21 -74 -2 -131 17
-49 45 -85 90 -114 25 -17 51 -20 168 -23 l137 -4 -2 -576 -3 -577 -28 -60
c-55 -117 -66 -141 -97 -215 -34 -78 -51 -117 -93 -210 -14 -30 -40 -89 -57
-130 -41 -99 -44 -106 -73 -170 -14 -30 -40 -89 -57 -130 -17 -41 -43 -100
-57 -130 -37 -83 -57 -128 -91 -205 -17 -38 -42 -97 -57 -130 -14 -33 -30 -69
-35 -80 -4 -11 -19 -45 -32 -75 -14 -30 -40 -89 -57 -130 -51 -117 -57 -131
-90 -203 -17 -37 -31 -70 -31 -72 0 -2 -11 -28 -24 -57 -53 -116 -86 -190 -86
-193 0 -4 -10 -27 -60 -140 -24 -54 -63 -144 -77 -175 -8 -19 -19 -44 -24 -55
-57 -130 -73 -262 -45 -375 56 -225 184 -374 394 -458 l67 -27 1590 0 c1679 0
1620 -1 1705 42 14 7 29 13 33 13 17 0 103 65 152 115 101 100 157 213 176
350 13 101 0 228 -32 303 -20 46 -85 178 -107 217 -6 11 -70 139 -143 285
-193 389 -284 570 -351 705 -34 66 -108 215 -165 330 -57 116 -109 219 -115
229 -5 11 -102 203 -214 427 l-204 407 0 575 0 575 133 4 c111 3 137 6 162 23
74 49 99 104 93 201 -3 52 -9 70 -34 101 -17 21 -50 48 -75 60 l-44 22 -1045
0 c-996 1 -1047 0 -1085 -18z m1475 -1012 l0 -620 185 -370 185 -369 -735 0
c-547 0 -735 3 -735 12 0 6 11 34 24 62 13 28 38 85 56 126 46 108 55 127 89
203 17 37 31 69 31 72 0 2 18 43 40 90 22 47 40 89 40 93 1 4 9 25 20 47 18
38 19 68 20 658 l0 617 390 0 390 0 0 -621z m-719 -1985 c83 -40 138 -137 118
-208 -27 -99 -96 -156 -189 -156 -162 0 -247 187 -142 311 51 61 147 85 213
53z m731 -405 c82 -32 139 -91 171 -179 31 -85 15 -182 -42 -260 -39 -53 -71
-77 -134 -101 -138 -52 -293 11 -362 149 -35 70 -35 174 0 244 71 140 224 202
367 147z"/>
</g>
</svg>
