<svg id="visual" viewBox="0 0 1920 40" width="1920" height="40" xmlns="http://www.w3.org/2000/svg" xmlns:xlink="http://www.w3.org/1999/xlink" version="1.1"><path d="M0 24L11.5 23C23 22 46 20 68.8 20.2C91.7 20.3 114.3 22.7 137.2 23.8C160 25 183 25 205.8 22.5C228.7 20 251.3 15 274.2 12.8C297 10.7 320 11.3 342.8 11.8C365.7 12.3 388.3 12.7 411.2 14.7C434 16.7 457 20.3 480 20.3C503 20.3 526 16.7 548.8 17.3C571.7 18 594.3 23 617.2 23.8C640 24.7 663 21.3 685.8 18.5C708.7 15.7 731.3 13.3 754.2 13.7C777 14 800 17 822.8 18.2C845.7 19.3 868.3 18.7 891.2 17C914 15.3 937 12.7 960 13.8C983 15 1006 20 1028.8 21.5C1051.7 23 1074.3 21 1097.2 19.3C1120 17.7 1143 16.3 1165.8 16C1188.7 15.7 1211.3 16.3 1234.2 16.5C1257 16.7 1280 16.3 1302.8 16.7C1325.7 17 1348.3 18 1371.2 20C1394 22 1417 25 1440 23.3C1463 21.7 1486 15.3 1508.8 15.3C1531.7 15.3 1554.3 21.7 1577.2 23.2C1600 24.7 1623 21.3 1645.8 21.3C1668.7 21.3 1691.3 24.7 1714.2 23.7C1737 22.7 1760 17.3 1782.8 16.8C1805.7 16.3 1828.3 20.7 1851.2 22.5C1874 24.3 1897 23.7 1908.5 23.3L1920 23L1920 41L1908.5 41C1897 41 1874 41 1851.2 41C1828.3 41 1805.7 41 1782.8 41C1760 41 1737 41 1714.2 41C1691.3 41 1668.7 41 1645.8 41C1623 41 1600 41 1577.2 41C1554.3 41 1531.7 41 1508.8 41C1486 41 1463 41 1440 41C1417 41 1394 41 1371.2 41C1348.3 41 1325.7 41 1302.8 41C1280 41 1257 41 1234.2 41C1211.3 41 1188.7 41 1165.8 41C1143 41 1120 41 1097.2 41C1074.3 41 1051.7 41 1028.8 41C1006 41 983 41 960 41C937 41 914 41 891.2 41C868.3 41 845.7 41 822.8 41C800 41 777 41 754.2 41C731.3 41 708.7 41 685.8 41C663 41 640 41 617.2 41C594.3 41 571.7 41 548.8 41C526 41 503 41 480 41C457 41 434 41 411.2 41C388.3 41 365.7 41 342.8 41C320 41 297 41 274.2 41C251.3 41 228.7 41 205.8 41C183 41 160 41 137.2 41C114.3 41 91.7 41 68.8 41C46 41 23 41 11.5 41L0 41Z" fill="#2e3447" stroke-linecap="round" stroke-linejoin="miter"></path></svg>