<?xml version="1.0" standalone="no"?>
<!DOCTYPE svg PUBLIC "-//W3C//DTD SVG 20010904//EN"
 "http://www.w3.org/TR/2001/REC-SVG-20010904/DTD/svg10.dtd">
<svg version="1.0" xmlns="http://www.w3.org/2000/svg"
 width="512.000000pt" height="512.000000pt" viewBox="0 0 512.000000 512.000000"
 preserveAspectRatio="xMidYMid meet">

<g transform="translate(0.000000,512.000000) scale(0.100000,-0.100000)"
fill="#f0f0f0" stroke="none">
<path d="M1397 5009 c-111 -59 -138 -210 -54 -306 46 -52 85 -65 225 -71 l122
-5 -2 -586 -3 -586 -132 -295 c-72 -162 -220 -497 -328 -745 -108 -247 -212
-484 -230 -525 -18 -41 -89 -203 -158 -360 -341 -778 -334 -758 -324 -905 11
-153 70 -284 179 -393 103 -103 215 -156 368 -173 52 -6 666 -8 1575 -6 1399
3 1494 4 1549 21 216 65 373 228 432 448 18 70 18 206 -2 280 -9 37 -266 563
-670 1369 l-654 1309 0 575 0 575 83 0 c168 0 243 28 289 107 50 84 20 205
-63 260 l-43 28 -1060 2 c-1043 2 -1062 2 -1099 -18z m1493 -999 l0 -620 185
-370 185 -370 -749 0 -749 0 85 193 c47 105 120 274 164 374 l79 181 0 616 0
616 400 0 400 0 0 -620z m-751 -1970 c80 -23 151 -110 151 -184 0 -153 -151
-251 -286 -185 -133 64 -150 243 -31 334 56 42 106 53 166 35z m779 -421 c171
-83 219 -316 96 -462 -60 -72 -167 -114 -258 -103 -144 19 -249 126 -263 269
-7 76 7 130 50 193 81 121 245 166 375 103z"/>
</g>
</svg>
